<?xml version="1.0" encoding="utf-8"?>
<!-- Generator: Adobe Illustrator 27.0.0, SVG Export Plug-In . SVG Version: 6.00 Build 0)  -->
<svg version="1.1" id="Layer_1" xmlns="http://www.w3.org/2000/svg" xmlns:xlink="http://www.w3.org/1999/xlink" x="0px" y="0px"
	 viewBox="0 0 275.49 66.78" style="enable-background:new 0 0 275.49 66.78;" xml:space="preserve">
<style type="text/css">
	.st0{fill:#9FD18C;}
	.st1{fill:#BFDFB1;}
	.st2{fill:#61BE78;}
	.st3{fill:#8DCEAD;}
	.st4{fill:#1D9470;}
</style>
<g>
	<g>
		<path class="st0" d="M6.71,42.51c-0.04-6.14-0.08-12.29-0.08-18.54c0-0.12-0.02-0.13,0.28-0.11c0.41,0.03,46.93,0.06,47.05,0.01
			c0.47,2.12,1.08,4.23,1.36,6.38c0.44,3.36,0.1,6.71-0.56,10.03c-0.16,0.8-0.46,1.57-0.86,2.42c-15.31,0.06-30.45,0.06-45.59,0.04
			C7.78,42.74,7.25,42.59,6.71,42.51z"/>
		<path class="st1" d="M6.66,42.59c0.59,0,1.13,0.14,1.66,0.14c15.14,0.01,30.28,0.01,45.53,0.02c-0.76,3.62-2.57,6.76-4.93,9.56
			c-2.18,2.59-4.79,4.68-7.82,6.24c-3.17,1.63-6.53,2.71-10.07,2.8c-7.77,0.19-15.55,0.17-23.32,0.26
			c-0.76,0.01-1.17-0.15-1.16-1.03C6.58,54.61,6.59,48.64,6.66,42.59z"/>
		<path class="st2" d="M6.63,23.89c0-0.29,0-0.38,0-0.51c0-5.73,0-11.45,0.05-17.35C6.77,5.6,6.81,5.36,6.84,5.11
			C6.92,5.1,7,5.09,7.17,5.13c0.18,0.02,0.26,0,0.34-0.03c7.3,0.02,14.6,0.04,22.09,0.1c0.46,0.03,0.73,0.03,1,0.02
			c11.49,1.11,19.21,7.1,23.23,17.9c0.07,0.18,0.09,0.38,0.13,0.66c-0.12,0.14-0.23,0.19-0.4,0.28c-0.06,0.03-0.07,0.04-0.09-0.01
			c-0.08-0.11-0.14-0.13-0.33-0.12C38.17,23.9,23.29,23.9,8.42,23.9"/>
		<path class="st3" d="M6.75,5.13C6.81,5.36,6.77,5.6,6.7,5.92C6.66,5.7,6.67,5.42,6.75,5.13z"/>
		<path class="st3" d="M30.55,5.17c-0.21,0.06-0.48,0.07-0.84,0.04C29.91,5.16,30.21,5.14,30.55,5.17z"/>
		<path class="st3" d="M7.44,5.08c-0.01,0.05-0.09,0.07-0.2,0.06C7.26,5.09,7.31,5.07,7.44,5.08z"/>
	</g>
	<g>
		<path class="st4" d="M102.34,42.76H73.38c0.19,3.09,1.37,5.46,3.53,7.1c2.17,1.64,5.36,2.46,9.58,2.46c2.67,0,5.26-0.48,7.77-1.44
			s4.49-1.99,5.94-3.09h1.41v10.16c-2.86,1.15-5.55,1.98-8.09,2.5s-5.33,0.77-8.4,0.77c-7.92,0-13.99-1.78-18.21-5.34
			s-6.33-8.64-6.33-15.22c0-6.52,2-11.68,5.99-15.49c4-3.81,9.47-5.71,16.44-5.71c6.42,0,11.25,1.62,14.48,4.87
			c3.23,3.25,4.85,7.92,4.85,14.01V42.76z M89.76,35.34c-0.07-2.65-0.73-4.64-1.97-5.98s-3.18-2-5.8-2c-2.44,0-4.44,0.63-6.01,1.9
			c-1.57,1.27-2.45,3.29-2.64,6.08H89.76z"/>
		<path class="st4" d="M152.55,60.17h-14.77l-8.43-11.82l-8.66,11.82h-14.47l15.57-19.77l-15.33-19.71h14.77l8.3,11.58l8.34-11.58
			h14.51l-15.36,19.45L152.55,60.17z"/>
		<path class="st4" d="M184.68,59.82c-1.36,0.35-2.8,0.62-4.32,0.82s-3.39,0.3-5.59,0.3c-4.92,0-8.58-1-10.99-2.99
			s-3.6-5.4-3.6-10.23V29.26h-5.2v-8.58h5.2V9.4h12.69v11.29h11.81v8.58h-11.81v14.01c0,1.39,0.01,2.59,0.04,3.63
			c0.02,1.03,0.21,1.96,0.56,2.78c0.33,0.82,0.91,1.47,1.74,1.95c0.83,0.48,2.04,0.72,3.63,0.72c0.65,0,1.51-0.14,2.58-0.42
			s1.8-0.54,2.23-0.77h1.05V59.82z"/>
		<path class="st4" d="M231.12,42.76h-28.97c0.19,3.09,1.37,5.46,3.53,7.1s5.36,2.46,9.58,2.46c2.67,0,5.26-0.48,7.77-1.44
			s4.49-1.99,5.94-3.09h1.41v10.16c-2.86,1.15-5.55,1.98-8.09,2.5s-5.33,0.77-8.4,0.77c-7.92,0-13.99-1.78-18.21-5.34
			s-6.33-8.64-6.33-15.22c0-6.52,2-11.68,5.99-15.49c4-3.81,9.47-5.71,16.44-5.71c6.42,0,11.25,1.62,14.48,4.87
			c3.23,3.25,4.85,7.92,4.85,14.01V42.76z M218.54,35.34c-0.07-2.65-0.73-4.64-1.97-5.98s-3.18-2-5.8-2c-2.44,0-4.44,0.63-6.01,1.9
			s-2.45,3.29-2.64,6.08H218.54z"/>
		<path class="st4" d="M268.67,32.74h-1.12c-0.54-0.19-1.4-0.33-2.6-0.42c-1.19-0.09-2.19-0.14-2.98-0.14
			c-1.8,0-3.39,0.12-4.77,0.35c-1.38,0.23-2.87,0.63-4.46,1.2v26.44h-12.69V20.68h12.69v5.8c2.78-2.39,5.2-3.98,7.26-4.76
			c2.06-0.79,3.95-1.18,5.68-1.18c0.44,0,0.95,0.01,1.51,0.04c0.56,0.02,1.05,0.06,1.47,0.11V32.74z"/>
	</g>
</g>
</svg>
